<svg width="25" height="25" fill="none" xmlns="http://www.w3.org/2000/svg"><g clip-path="url(#clip0_381_28)"><path d="M20.82 11.884c-.58.751-1.457 1.267-2.629 1.548 1.493.76 2.149 2.053 1.969 3.876-.06.661-.243 1.234-.549 1.72a3.44 3.44 0 01-1.24 1.172 6.827 6.827 0 01-1.697.676c-.611.155-1.313.268-2.104.338V25h-2.313v-3.681c-.401 0-1.012-.01-1.833-.03V25H8.11v-3.786a51.74 51.74 0 00-1.457-.015l-3.185.015V18.75h1.667c.761 0 1.207-.34 1.337-1.022v-4.312c.1 0 .18-.005.24-.015h-.24v-6.04c-.08-.51-.37-.766-.871-.766H3.933l-.465-2.75h3.005c.19 0 .465-.002.826-.006.36-.005.63-.008.811-.008V0h2.314v3.786c.42-.01 1.032-.015 1.833-.015V0h2.314v3.83c.821.04 1.55.115 2.186.225.636.11 1.244.283 1.825.519.58.235 1.066.528 1.457.879.39.35.714.796.97 1.337.255.541.418 1.167.487 1.878.131 1.392-.094 2.464-.675 3.215zm-10.35 6.701a111.129 111.129 0 011.405.023c.215.005.506-.008.871-.038.366-.03.674-.07.924-.12.25-.05.526-.133.826-.248.301-.115.541-.255.721-.42.18-.166.334-.376.459-.632a1.97 1.97 0 00.188-.878c0-.281-.045-.536-.136-.767a1.444 1.444 0 00-.405-.578 4.104 4.104 0 00-.556-.406 2.546 2.546 0 00-.729-.278c-.295-.07-.553-.125-.773-.165a6.34 6.34 0 00-.827-.083 52.9 52.9 0 00-.75-.03 16.042 16.042 0 00-.7 0l-.518.008v4.612zm6.318-10.231a2.135 2.135 0 00-.368-.602c-.15-.17-.349-.32-.594-.45a5.088 5.088 0 00-.713-.316c-.23-.08-.509-.15-.834-.21-.326-.06-.611-.103-.857-.128a15.637 15.637 0 00-.879-.06 19.728 19.728 0 00-1.517-.015c-.291.005-.476.007-.556.007v5.079c.08 0 .318.005.713.015.396.01.719.015.97.015.25 0 .596-.015 1.036-.045.44-.03.811-.075 1.112-.135a7.3 7.3 0 00.984-.278c.356-.125.644-.278.864-.458.22-.18.406-.41.556-.691.15-.28.226-.601.226-.962 0-.28-.048-.536-.143-.766z" fill="#6362E7"/></g><defs><clipPath id="clip0_381_28"><path fill="#fff" transform="matrix(1 0 0 -1 0 25)" d="M0 0h25v25H0z"/></clipPath></defs></svg>