<svg width="28" height="28" fill="none" xmlns="http://www.w3.org/2000/svg"><g clip-path="url(#clip0_449_18)"><path d="M27.707 10.293l-7-7A1 1 0 0019 4v3h-7a1 1 0 100 2h8a1 1 0 001-1V6.414L25.586 11 21 15.586V14a1 1 0 00-1-1H9v-3a1 1 0 00-1.707-.707l-7 7a1 1 0 000 1.414l7 7A1 1 0 009 24v-3h7a1 1 0 000-2H8a1 1 0 00-1 1v1.586L2.414 17 7 12.414V14a1 1 0 001 1h11v3a1 1 0 001.707.707l7-7a1 1 0 000-1.414z" fill="#6362E7"/></g><defs><clipPath id="clip0_449_18"><path fill="#fff" d="M0 0h28v28H0z"/></clipPath></defs></svg>