<svg width="22" height="24" fill="none" xmlns="http://www.w3.org/2000/svg"><path d="M14.543 23.354a5.077 5.077 0 01-2.488-4.363c0-.927.369-1.86.83-2.693.369-.744.55-2.043-.737-2.693-.918-.554-2.12-.185-2.669.744-.55.744-1.194 1.488-2.024 2.043-1.563.926-3.406.926-4.97 0a5.081 5.081 0 010-8.734c1.563-.927 3.407-.927 4.97 0 .83.465 1.474 1.204 1.93 2.042.37.65 1.383 1.488 2.67.744.918-.554 1.194-1.766.737-2.693-.461-.837-.737-1.766-.737-2.693 0-1.766.918-3.437 2.488-4.363 1.562-.927 3.406-.927 4.969 0a5.074 5.074 0 010 8.73c-.83.465-1.75.65-2.762.65-.83 0-1.931.554-1.931 1.948 0 1.116.83 1.95 1.931 1.95.919 0 1.932.184 2.762.65A5.077 5.077 0 0122 18.986c0 1.764-.92 3.437-2.488 4.363-.737.466-1.656.65-2.485.65-.826.006-1.751-.184-2.484-.645" fill="#FFC500"/></svg>